<svg width="128" height="128" viewBox="0 0 128 128" fill="none" xmlns="http://www.w3.org/2000/svg">
<path d="M113.354 28.8482C113.333 28.6607 113.302 28.4628 113.302 28.2544C113.302 28.0565 113.312 27.8586 113.354 27.6607V14.6503C104.229 13.7857 94.8228 14.7857 86.604 17.9003C78.9268 20.817 72.302 25.5982 68 32.4628V106.577C74.6976 102.109 81.5416 98.4316 88.5728 95.9316C96.5832 93.0772 104.823 91.7232 113.354 92.4004V28.8482ZM60.1144 105.806V32.3378C55.9792 25.0461 49.2916 20.1711 41.75 17.2753C33.1978 14.0044 23.5832 13.2648 15.2082 14.4524L14.7603 92.6296C23.8957 92.296 32.8436 93.4628 41.25 96.2128C47.9476 98.39 54.2916 101.588 60.1144 105.806Z" fill="#E02D71"/>
<path d="M6.89584 96.4732L7.2604 32.2128H0V113.984C9.96876 111.411 19.9688 109.775 30.0521 109.702C39.3542 109.65 48.6564 110.942 57.9792 114.098C52.1876 109.411 45.7292 105.952 38.8333 103.713C30.1562 100.88 20.7708 99.942 11.1458 100.765C8.96876 100.942 7.07292 99.3272 6.8854 97.1608C6.8646 96.9212 6.8646 96.692 6.89584 96.4732ZM71.8228 113.494C80.5416 110.754 89.2396 109.63 97.948 109.682C108.021 109.734 118.031 111.39 128 113.963V32.2128H121.25V96.8272C121.25 99.0044 119.479 100.775 117.302 100.775C116.99 100.775 116.688 100.744 116.396 100.671C107.76 99.3168 99.396 100.442 91.2292 103.348C84.646 105.692 78.1876 109.202 71.8228 113.494Z" fill="#2E2E2E"/>
</svg>
