<svg width="128" height="34" viewBox="0 0 128 34" fill="none" xmlns="http://www.w3.org/2000/svg">
<g clip-path="url(#clip0_11387_20)">
<path d="M8.4 13.84C9.92 12.2133 11.8933 11.4 14.32 11.4C17.1733 11.4 19.3733 12.3333 20.92 14.2C22.4667 16.04 23.24 18.7733 23.24 22.4C23.24 26.0533 22.4667 28.8133 20.92 30.68C19.3733 32.5467 17.1733 33.48 14.32 33.48C11.3867 33.48 9.1467 32.32 7.6 30L6.92 33H0.440002V4.00002H8.4V13.84ZM11.84 17.28C10.6667 17.28 9.7867 17.7067 9.2 18.56C8.6133 19.3867 8.32 20.4667 8.32 21.8V23.12C8.32 24.4533 8.6133 25.5333 9.2 26.36C9.7867 27.1867 10.6667 27.6 11.84 27.6C14.1333 27.6 15.28 26.24 15.28 23.52V21.4C15.28 18.6533 14.1333 17.28 11.84 17.28ZM37.9997 11.4C41.7064 11.4 44.613 12.3467 46.7197 14.24C48.853 16.1067 49.9197 18.84 49.9197 22.44C49.9197 26.04 48.853 28.7867 46.7197 30.68C44.613 32.5467 41.7064 33.48 37.9997 33.48C34.293 33.48 31.3864 32.5467 29.2797 30.68C27.173 28.8133 26.1197 26.0667 26.1197 22.44C26.1197 18.8133 27.173 16.0667 29.2797 14.2C31.3864 12.3333 34.293 11.4 37.9997 11.4ZM37.9997 16.8C35.3864 16.8 34.0797 18.3067 34.0797 21.32V23.6C34.0797 26.5867 35.3864 28.08 37.9997 28.08C40.6397 28.08 41.9597 26.5867 41.9597 23.6V21.32C41.9597 18.3067 40.6397 16.8 37.9997 16.8ZM64.6794 11.4C68.386 11.4 71.2927 12.3467 73.3994 14.24C75.5327 16.1067 76.5994 18.84 76.5994 22.44C76.5994 26.04 75.5327 28.7867 73.3994 30.68C71.2927 32.5467 68.386 33.48 64.6794 33.48C60.9727 33.48 58.066 32.5467 55.9594 30.68C53.8527 28.8133 52.7994 26.0667 52.7994 22.44C52.7994 18.8133 53.8527 16.0667 55.9594 14.2C58.066 12.3333 60.9727 11.4 64.6794 11.4ZM64.6794 16.8C62.066 16.8 60.7594 18.3067 60.7594 21.32V23.6C60.7594 26.5867 62.066 28.08 64.6794 28.08C67.3194 28.08 68.6394 26.5867 68.6394 23.6V21.32C68.6394 18.3067 67.3194 16.8 64.6794 16.8ZM95.1591 11.88H104.439L96.6391 20.4L104.639 33H95.5991L91.1591 25.76L88.3991 28.44V33H80.4391V3.96002H88.3991V19.96L95.1591 11.88ZM117.159 11.4C119.985 11.4 122.372 11.96 124.319 13.08C126.292 14.1733 127.279 15.88 127.279 18.2H119.879C119.879 17.4267 119.532 16.88 118.839 16.56C118.359 16.2933 117.759 16.16 117.039 16.16C115.119 16.16 114.159 16.6133 114.159 17.52C114.159 18.0267 114.492 18.3867 115.159 18.6C115.825 18.8133 116.919 19.04 118.439 19.28C120.305 19.5467 121.865 19.8667 123.119 20.24C124.372 20.5867 125.465 21.2267 126.399 22.16C127.332 23.0667 127.799 24.3467 127.799 26C127.799 28.6933 126.785 30.6133 124.759 31.76C122.759 32.9067 120.132 33.48 116.879 33.48C115.012 33.48 113.252 33.2267 111.599 32.72C109.945 32.1867 108.599 31.3733 107.559 30.28C106.519 29.1867 105.999 27.8 105.999 26.12H113.399V26.28C113.425 27.1867 113.799 27.8267 114.519 28.2C115.265 28.5467 116.052 28.72 116.879 28.72C119.092 28.72 120.199 28.2 120.199 27.16C120.199 26.6267 119.852 26.24 119.159 26C118.465 25.76 117.332 25.5067 115.759 25.24C113.865 24.92 112.305 24.5733 111.079 24.2C109.879 23.8267 108.825 23.2 107.919 22.32C107.012 21.4133 106.559 20.16 106.559 18.56C106.559 15.9733 107.532 14.1333 109.479 13.04C111.452 11.9467 114.012 11.4 117.159 11.4Z" fill="#150C26"/>
<path d="M38 8C40.2091 8 42 6.20914 42 4C42 1.79086 40.2091 0 38 0C35.7909 0 34 1.79086 34 4C34 6.20914 35.7909 8 38 8Z" fill="#E02D71"/>
<path d="M64.6999 8C66.9091 8 68.6999 6.20914 68.6999 4C68.6999 1.79086 66.9091 0 64.6999 0C62.4908 0 60.7 1.79086 60.7 4C60.7 6.20914 62.4908 8 64.6999 8Z" fill="#E02D71"/>
</g>
<defs>
<clipPath id="clip0_11387_20">
<rect width="128" height="34" fill="white"/>
</clipPath>
</defs>
</svg>
