<svg width="32" height="32" viewBox="0 0 32 32" fill="none" xmlns="http://www.w3.org/2000/svg">
<path d="M28.3385 7.21205C28.3333 7.16517 28.3255 7.11569 28.3255 7.06361C28.3255 7.01413 28.3281 6.96465 28.3385 6.91517V3.66257C26.0573 3.44642 23.7057 3.69642 21.651 4.47507C19.7317 5.20424 18.0755 6.39955 17 8.11569V26.6443C18.6744 25.5272 20.3854 24.6079 22.1432 23.9829C24.1458 23.2693 26.2057 22.9308 28.3385 23.1001V7.21205ZM15.0286 26.4516V8.08444C13.9948 6.26153 12.3229 5.04278 10.4375 4.31882C8.29944 3.50111 5.89579 3.31621 3.80204 3.61309L3.69006 23.1574C5.97392 23.074 8.2109 23.3657 10.3125 24.0532C11.9869 24.5975 13.5729 25.3969 15.0286 26.4516Z" fill="#E02D71"/>
<path d="M1.72396 24.1183L1.8151 8.05319H0V28.4959C2.49219 27.8527 4.99219 27.4438 7.51302 27.4256C9.83854 27.4126 12.1641 27.7355 14.4948 28.5245C13.0469 27.3527 11.4323 26.4881 9.70833 25.9282C7.53906 25.2199 5.19271 24.9855 2.78646 25.1912C2.24219 25.2355 1.76823 24.8318 1.72135 24.2902C1.71615 24.2303 1.71615 24.173 1.72396 24.1183ZM17.9557 28.3735C20.1354 27.6886 22.3099 27.4074 24.487 27.4204C27.0052 27.4334 29.5078 27.8475 32 28.4907V8.05319H30.3125V24.2068C30.3125 24.7511 29.8698 25.1938 29.3255 25.1938C29.2474 25.1938 29.1719 25.186 29.099 25.1678C26.9401 24.8292 24.849 25.1105 22.8073 25.837C21.1615 26.423 19.5469 27.3006 17.9557 28.3735Z" fill="#2E2E2E"/>
</svg>
